HIERARCHY
ROOT Hips
{
    OFFSET 0.000000 0.000000 0.000000
    CHANNELS 6 Xposition Yposition Zposition Zrotation Xrotation Yrotation
    JOINT Spine
    {
        OFFSET -0.000000 14.517291 0.000000
        CHANNELS 3 Zrotation Xrotation Yrotation
        JOINT Spine1
        {
            OFFSET -0.000000 37.558300 0.000000
            CHANNELS 3 Zrotation Xrotation Yrotation
            JOINT Neck
            {
                OFFSET -0.000000 37.404057 3.400369
                CHANNELS 3 Zrotation Xrotation Yrotation
                JOINT Head
                {
                    OFFSET -0.000000 24.785618 -3.540803
                    CHANNELS 3 Zrotation Xrotation Yrotation
                    End Site
                    {
                        OFFSET -0.000000 35.408028 0.000000
                    }
                }
            }
            JOINT LeftShoulder
            {
                OFFSET 6.992933 33.973492 -0.192664
                CHANNELS 3 Zrotation Xrotation Yrotation
                JOINT LeftArm
                {
                    OFFSET 21.527611 0.000000 0.000000
                    CHANNELS 3 Zrotation Xrotation Yrotation
                    JOINT LeftForeArm
                    {
                        OFFSET 56.353916 0.000000 0.000000
                        CHANNELS 3 Zrotation Xrotation Yrotation
                        JOINT LeftHand
                        {
                            OFFSET 47.774071 0.000000 0.000000
                            CHANNELS 3 Zrotation Xrotation Yrotation
                            End Site
                            {
                                OFFSET 26.556021 0.000000 0.000000
                            }
                        }
                    }
                }
            }
            JOINT RightShoulder
            {
                OFFSET -7.065357 33.973492 -0.192664
                CHANNELS 3 Zrotation Xrotation Yrotation
                JOINT RightArm
                {
                    OFFSET -21.527611 0.000000 0.000000
                    CHANNELS 3 Zrotation Xrotation Yrotation
                    JOINT RightForeArm
                    {
                        OFFSET -56.353916 0.000000 0.000000
                        CHANNELS 3 Zrotation Xrotation Yrotation
                        JOINT RightHand
                        {
                            OFFSET -47.774071 0.000000 0.000000
                            CHANNELS 3 Zrotation Xrotation Yrotation
                            End Site
                            {
                                OFFSET -26.556021 0.000000 0.000000
                            }
                        }
                    }
                }
            }
        }
    }
    JOINT LeftUpLeg
    {
        OFFSET 17.704014 0.000000 0.000000
        CHANNELS 3 Zrotation Xrotation Yrotation
        JOINT LeftLeg
        {
            OFFSET -0.000000 -81.181816 0.000000
            CHANNELS 3 Zrotation Xrotation Yrotation
            JOINT LeftFoot
            {
                OFFSET -0.000000 -62.821102 0.000000
                CHANNELS 3 Zrotation Xrotation Yrotation
                JOINT LeftToeBase
                {
                    OFFSET -0.000000 -11.507608 26.556021
                    CHANNELS 3 Zrotation Xrotation Yrotation
                    End Site
                    {
                        OFFSET -0.000000 0.000000 7.081605
                    }
                }
            }
        }
    }
    JOINT RightUpLeg
    {
        OFFSET -17.704014 0.000000 0.000000
        CHANNELS 3 Zrotation Xrotation Yrotation
        JOINT RightLeg
        {
            OFFSET -0.000000 -81.181816 0.000000
            CHANNELS 3 Zrotation Xrotation Yrotation
            JOINT RightFoot
            {
                OFFSET -0.000000 -62.821102 0.000000
                CHANNELS 3 Zrotation Xrotation Yrotation
                JOINT RightToeBase
                {
                    OFFSET -0.000000 -11.507608 26.556021
                    CHANNELS 3 Zrotation Xrotation Yrotation
                    End Site
                    {
                        OFFSET -0.000000 0.000000 7.081605
                    }
                }
            }
        }
    }
}
MOTION
Frames:    9
Frame Time:    0.008333
12.672075    154.204514    -7.157592    -1.368869    -0.701213    -43.513988    4.957084    1.348086    4.560148    -1.744992    0.716821    1.550019    16.670986    7.687660    16.182507    -11.724293    -2.579249    13.618296    -0.656012    8.664990    -10.320919    -37.535763    6.546867    -33.270752    33.319260    -43.231033    -47.007919    -16.697735    -27.480551    -29.549969    -4.884186    6.029700    -1.749682    35.714027    10.175963    74.202545    7.208065    -8.688899    95.449669    12.118815    -14.430099    19.487358    23.655697    -20.552422    8.081718    -18.757439    27.379995    -3.086112    -4.883162    -4.906681    43.115017    0.000000    0.000000    0.000000    -21.954819    -0.223426    -28.258423    9.006536    28.827631    -16.368603    10.356679    -11.095261    -14.472418    0.000000    0.000000    0.000000    
12.678993    154.201462    -7.130448    -1.363202    -0.706067    -43.527718    4.945873    1.356725    4.567595    -1.727712    0.718037    1.552475    16.671326    7.688140    16.186144    -11.737501    -2.596773    13.618237    -0.655629    8.662635    -10.310729    -37.573074    6.524292    -33.242279    33.278206    -43.219025    -47.057003    -16.679594    -27.474840    -29.529646    -4.883356    6.021349    -1.747794    35.710365    10.177298    74.201302    7.216307    -8.696116    95.464828    12.120543    -14.447048    19.494259    23.644262    -20.554398    8.062713    -18.775190    27.399521    -3.069086    -4.871499    -4.924312    43.124596    0.000000    0.000000    0.000000    -21.966805    -0.221914    -28.244291    9.000449    28.813595    -16.402130    10.360044    -11.078032    -14.443280    0.000000    0.000000    0.000000    
12.692985    154.201202    -7.100896    -1.344860    -0.704792    -43.536186    4.946358    1.353756    4.566435    -1.728945    0.721744    1.552149    16.656250    7.701858    16.183786    -11.728662    -2.652429    13.614925    -0.661518    8.660072    -10.293885    -37.580421    6.539511    -33.214401    33.280350    -43.242207    -47.061825    -16.668243    -27.505442    -29.514771    -4.883558    6.014148    -1.739741    35.722977    10.170114    74.198074    7.215774    -8.688783    95.466042    12.143995    -14.433592    19.515203    23.619940    -20.571533    8.036993    -18.782509    27.416288    -3.085428    -4.857052    -4.947628    43.176674    0.000000    0.000000    0.000000    -21.989491    -0.230889    -28.237278    9.003398    28.804033    -16.391443    10.361426    -11.070170    -14.460047    0.000000    0.000000    0.000000    
12.706123    154.201355    -7.075038    -1.325014    -0.697050    -43.551781    4.935415    1.343153    4.578023    -1.710666    0.727307    1.555779    16.637373    7.684709    16.183802    -11.709311    -2.656280    13.616586    -0.669037    8.647020    -10.299520    -37.602184    6.545524    -33.168671    33.275826    -43.258301    -47.072723    -16.670746    -27.523689    -29.509052    -4.886583    6.017375    -1.745652    35.736168    10.159015    74.199928    7.220774    -8.684868    95.471077    12.153840    -14.434780    19.508680    23.603582    -20.593147    8.034775    -18.786890    27.436943    -3.073300    -4.840560    -4.958094    43.196297    0.000000    0.000000    0.000000    -22.004700    -0.250828    -28.238192    8.988631    28.795643    -16.387362    10.375675    -11.052211    -14.440330    0.000000    0.000000    0.000000    
12.718074    154.201584    -7.049395    -1.304123    -0.688873    -43.562611    4.934404    1.331541    4.575702    -1.712177    0.734543    1.554948    16.623373    7.674264    16.188150    -11.684567    -2.672988    13.623023    -0.676414    8.644580    -10.279394    -37.589890    6.585312    -33.142628    33.327755    -43.288979    -47.029724    -16.689129    -27.548006    -29.510622    -4.884655    6.018063    -1.740444    35.741348    10.150338    74.203003    7.216547    -8.686770    95.470741    12.135083    -14.436880    19.493641    23.590876    -20.614040    8.021244    -18.801733    27.449116    -3.073726    -4.815795    -4.959181    43.226627    0.000000    0.000000    0.000000    -22.020132    -0.268427    -28.253397    8.971447    28.788380    -16.380928    10.389910    -11.039701    -14.427030    0.000000    0.000000    0.000000    
12.728460    154.204102    -7.024010    -1.283645    -0.682170    -43.578468    4.920600    1.317802    4.582126    -1.692147    0.738421    1.556774    16.607035    7.674343    16.184101    -11.667356    -2.687337    13.621495    -0.684359    8.649725    -10.276901    -37.596531    6.586238    -33.116692    33.331879    -43.296375    -47.012028    -16.707140    -27.555178    -29.521355    -4.888717    6.030865    -1.736845    35.740643    10.139393    74.205795    7.211087    -8.701523    95.460487    12.143560    -14.441993    19.499689    23.577305    -20.632225    8.022899    -18.810339    27.465805    -3.052905    -4.782577    -4.915280    43.192688    0.000000    0.000000    0.000000    -22.036612    -0.284416    -28.268967    8.957757    28.774122    -16.376123    10.387916    -11.018734    -14.407286    0.000000    0.000000    0.000000    
12.741173    154.205643    -6.996888    -1.261565    -0.674428    -43.593822    4.921012    1.302368    4.587834    -1.699012    0.747286    1.558628    16.598267    7.666281    16.187462    -11.642552    -2.701941    13.627058    -0.685357    8.644812    -10.266772    -37.586372    6.612933    -33.092171    33.354149    -43.315311    -46.986389    -16.702360    -27.582630    -29.489113    -4.885362    6.027745    -1.741807    35.748405    10.136323    74.208878    7.214206    -8.698451    95.444328    12.117343    -14.446205    19.484171    23.563084    -20.647930    8.022612    -18.823725    27.473742    -3.040656    -4.786729    -4.966454    43.242229    0.000000    0.000000    0.000000    -22.054541    -0.301340    -28.276878    8.945320    28.761829    -16.360538    10.411319    -11.006200    -14.403985    0.000000    0.000000    0.000000    
12.754252    154.209869    -6.974101    -1.239259    -0.664534    -43.606075    4.919195    1.289428    4.589139    -1.700012    0.745916    1.558830    16.583660    7.666800    16.186415    -11.615081    -2.711918    13.630695    -0.691080    8.639337    -10.259375    -37.584343    6.623082    -33.066299    33.365524    -43.316982    -46.958645    -16.706390    -27.588001    -29.487165    -4.889932    6.027709    -1.735771    35.769241    10.131442    74.203300    7.224477    -8.696145    95.423653    12.112954    -14.454022    19.473768    23.549767    -20.666758    8.020202    -18.831890    27.478529    -3.030373    -4.740726    -4.912971    43.221951    0.000000    0.000000    0.000000    -22.070015    -0.321264    -28.281290    8.936461    28.749611    -16.366976    10.416907    -10.985156    -14.383405    0.000000    0.000000    0.000000    
12.763217    154.214996    -6.947488    -1.225103    -0.661233    -43.615524    4.911970    1.281050    4.593744    -1.695418    0.750349    1.560247    16.580484    7.655062    16.182678    -11.594716    -2.708360    13.628943    -0.697893    8.641305    -10.263142    -37.578819    6.604724    -33.043182    33.341568    -43.298038    -46.968060    -16.681669    -27.583050    -29.450773    -4.884272    6.026482    -1.745517    35.774738    10.131016    74.205673    7.231653    -8.696687    95.402031    12.073301    -14.468165    19.452370    23.534399    -20.673340    8.004669    -18.845772    27.477276    -2.992997    -4.717631    -4.908421    43.216370    0.000000    0.000000    0.000000    -22.082115    -0.324471    -28.290085    8.927168    28.726952    -16.353218    10.424158    -10.958887    -14.394293    0.000000    0.000000    0.000000    
